<svg width="40" height="35" viewBox="0 0 40 35" fill="none" xmlns="http://www.w3.org/2000/svg">
<path d="M20 0H14.1666C12.6195 0 11.1358 0.614581 10.0419 1.70854C8.94789 2.80251 8.33331 4.28624 8.33331 5.83333C8.33331 7.38043 8.94789 8.86416 10.0419 9.95812C11.1358 11.0521 12.6195 11.6667 14.1666 11.6667M20 0V11.6667M20 0H25.8333C26.5994 -1.14149e-08 27.3579 0.150883 28.0656 0.444036C28.7734 0.737188 29.4164 1.16687 29.9581 1.70854C30.4998 2.25022 30.9295 2.89328 31.2226 3.60101C31.5158 4.30875 31.6666 5.06729 31.6666 5.83333C31.6666 6.59938 31.5158 7.35792 31.2226 8.06565C30.9295 8.77339 30.4998 9.41645 29.9581 9.95812C29.4164 10.4998 28.7734 10.9295 28.0656 11.2226C27.3579 11.5158 26.5994 11.6667 25.8333 11.6667M20 11.6667H14.1666M20 11.6667H25.8333M20 11.6667V23.3333M14.1666 11.6667C12.6195 11.6667 11.1358 12.2812 10.0419 13.3752C8.94789 14.4692 8.33331 15.9529 8.33331 17.5C8.33331 19.0471 8.94789 20.5308 10.0419 21.6248C11.1358 22.7188 12.6195 23.3333 14.1666 23.3333M25.8333 11.6667C25.0673 11.6667 24.3087 11.8175 23.601 12.1107C22.8933 12.4039 22.2502 12.8335 21.7085 13.3752C21.1668 13.9169 20.7372 14.5599 20.444 15.2677C20.1509 15.9754 20 16.734 20 17.5C20 18.266 20.1509 19.0246 20.444 19.7323C20.7372 20.4401 21.1668 21.0831 21.7085 21.6248C22.2502 22.1665 22.8933 22.5961 23.601 22.8893C24.3087 23.1824 25.0673 23.3333 25.8333 23.3333C26.5994 23.3333 27.3579 23.1824 28.0656 22.8893C28.7734 22.5961 29.4164 22.1665 29.9581 21.6248C30.4998 21.0831 30.9295 20.4401 31.2226 19.7323C31.5158 19.0246 31.6666 18.266 31.6666 17.5C31.6666 16.734 31.5158 15.9754 31.2226 15.2677C30.9295 14.5599 30.4998 13.9169 29.9581 13.3752C29.4164 12.8335 28.7734 12.4039 28.0656 12.1107C27.3579 11.8175 26.5994 11.6667 25.8333 11.6667ZM14.1666 23.3333C12.6195 23.3333 11.1358 23.9479 10.0419 25.0419C8.94789 26.1358 8.33331 27.6196 8.33331 29.1667C8.33331 30.7138 8.94789 32.1975 10.0419 33.2915C11.1358 34.3854 12.6195 35 14.1666 35C15.7137 35 17.1975 34.3854 18.2914 33.2915C19.3854 32.1975 20 30.7138 20 29.1667V23.3333M14.1666 23.3333H20" stroke="#1E1E1E" stroke-width="3.5" stroke-linecap="round" stroke-linejoin="round"/>
</svg>
