<svg width="24" height="35" viewBox="0 0 24 35" fill="none" xmlns="http://www.w3.org/2000/svg">
<path d="M11.6667 0H5.83333C4.28624 0 2.80251 0.614581 1.70854 1.70854C0.614582 2.80251 0 4.28624 0 5.83333C0 7.38043 0.614582 8.86416 1.70854 9.95812C2.80251 11.0521 4.28624 11.6667 5.83333 11.6667M11.6667 0V11.6667M11.6667 0H17.5C18.266 -1.14149e-08 19.0246 0.150883 19.7323 0.444036C20.4401 0.737188 21.0831 1.16687 21.6248 1.70854C22.1665 2.25022 22.5961 2.89328 22.8893 3.60101C23.1824 4.30875 23.3333 5.06729 23.3333 5.83333C23.3333 6.59938 23.1824 7.35792 22.8893 8.06565C22.5961 8.77339 22.1665 9.41645 21.6248 9.95812C21.0831 10.4998 20.4401 10.9295 19.7323 11.2226C19.0246 11.5158 18.266 11.6667 17.5 11.6667M11.6667 11.6667H5.83333M11.6667 11.6667H17.5M11.6667 11.6667V23.3333M5.83333 11.6667C4.28624 11.6667 2.80251 12.2812 1.70854 13.3752C0.614582 14.4692 0 15.9529 0 17.5C0 19.0471 0.614582 20.5308 1.70854 21.6248C2.80251 22.7188 4.28624 23.3333 5.83333 23.3333M17.5 11.6667C16.734 11.6667 15.9754 11.8175 15.2677 12.1107C14.5599 12.4039 13.9169 12.8335 13.3752 13.3752C12.8335 13.9169 12.4039 14.5599 12.1107 15.2677C11.8175 15.9754 11.6667 16.734 11.6667 17.5C11.6667 18.266 11.8175 19.0246 12.1107 19.7323C12.4039 20.4401 12.8335 21.0831 13.3752 21.6248C13.9169 22.1665 14.5599 22.5961 15.2677 22.8893C15.9754 23.1824 16.734 23.3333 17.5 23.3333C18.266 23.3333 19.0246 23.1824 19.7323 22.8893C20.4401 22.5961 21.0831 22.1665 21.6248 21.6248C22.1665 21.0831 22.5961 20.4401 22.8893 19.7323C23.1824 19.0246 23.3333 18.266 23.3333 17.5C23.3333 16.734 23.1824 15.9754 22.8893 15.2677C22.5961 14.5599 22.1665 13.9169 21.6248 13.3752C21.0831 12.8335 20.4401 12.4039 19.7323 12.1107C19.0246 11.8175 18.266 11.6667 17.5 11.6667ZM5.83333 23.3333C4.28624 23.3333 2.80251 23.9479 1.70854 25.0419C0.614582 26.1358 0 27.6196 0 29.1667C0 30.7138 0.614582 32.1975 1.70854 33.2915C2.80251 34.3854 4.28624 35 5.83333 35C7.38043 35 8.86416 34.3854 9.95812 33.2915C11.0521 32.1975 11.6667 30.7138 11.6667 29.1667V23.3333M5.83333 23.3333H11.6667" stroke="#1E1E1E" stroke-width="3.5" stroke-linecap="round" stroke-linejoin="round"/>
</svg>
